<svg width="420" height="51" viewBox="0 0 420 51" fill="none" xmlns="http://www.w3.org/2000/svg">
<circle cx="138.727" cy="24.7273" r="23.7273" stroke="white" stroke-width="2"/>
<path d="M143.818 16H141.041C139.814 16 138.637 16.4597 137.769 17.2781C136.901 18.0964 136.413 19.2063 136.413 20.3636V22.9818H133.636V26.4727H136.413V33.4545H140.116V26.4727H142.893L143.818 22.9818H140.116V20.3636C140.116 20.1322 140.213 19.9102 140.387 19.7465C140.56 19.5829 140.796 19.4909 141.041 19.4909H143.818V16Z" fill="#6EAD8A" stroke="white" stroke-width="2" stroke-linecap="round" stroke-linejoin="round"/>
<path d="M213.956 17.5537H205.869C203.636 17.5537 201.826 19.364 201.826 21.5971V29.6839C201.826 31.917 203.636 33.7273 205.869 33.7273H213.956C216.189 33.7273 218 31.917 218 29.6839V21.5971C218 19.364 216.189 17.5537 213.956 17.5537Z" fill="#6EAD8A" stroke="white" stroke-width="2.25" stroke-linecap="round" stroke-linejoin="round"/>
<path d="M213.147 25.1311C213.247 25.8042 213.132 26.4915 212.819 27.0954C212.506 27.6993 212.01 28.1891 211.402 28.495C210.794 28.8009 210.106 28.9073 209.434 28.7992C208.762 28.6912 208.142 28.374 207.66 27.8929C207.179 27.4118 206.862 26.7912 206.754 26.1195C206.646 25.4478 206.752 24.7591 207.058 24.1513C207.364 23.5436 207.854 23.0478 208.458 22.7344C209.062 22.421 209.749 22.3061 210.422 22.4059C211.109 22.5077 211.744 22.8276 212.235 23.3183C212.726 23.8091 213.046 24.4446 213.147 25.1311ZM214.36 21.1929H214.369H214.36Z" fill="#6EAD8A"/>
<path d="M214.36 21.1929H214.369M213.147 25.1311C213.247 25.8042 213.132 26.4915 212.819 27.0954C212.506 27.6993 212.01 28.1891 211.402 28.495C210.794 28.8009 210.106 28.9073 209.434 28.7992C208.762 28.6912 208.142 28.374 207.66 27.8929C207.179 27.4118 206.862 26.7912 206.754 26.1195C206.646 25.4478 206.752 24.7591 207.058 24.1513C207.364 23.5436 207.854 23.0478 208.458 22.7344C209.062 22.421 209.749 22.3061 210.422 22.4059C211.109 22.5077 211.744 22.8276 212.235 23.3183C212.726 23.8091 213.046 24.4446 213.147 25.1311Z" stroke="white" stroke-width="2.25" stroke-linecap="round" stroke-linejoin="round"/>
<circle cx="210" cy="25.7273" r="23.7273" stroke="white" stroke-width="2"/>
<path fill-rule="evenodd" clip-rule="evenodd" d="M284.395 17.5268C284.86 17.4485 285.38 17.4224 285.87 17.5043C286.742 17.6495 287.55 18.0488 288.189 18.6506C288.606 18.6596 289.016 18.5786 289.379 18.4633C289.729 18.3506 290.065 18.1993 290.381 18.0122L290.39 18.0068C290.521 17.9204 290.679 17.8815 290.836 17.8967C290.994 17.9119 291.141 17.9802 291.253 18.0901C291.365 18.2 291.435 18.3447 291.451 18.4997C291.467 18.6547 291.428 18.8105 291.341 18.9406C291.152 19.2242 290.888 19.7303 290.593 20.2976L290.452 20.5686C290.283 20.8928 290.109 21.2206 289.948 21.5015C289.846 21.678 289.738 21.8572 289.628 22.0121V22.2588C289.639 23.7344 289.352 25.1974 288.784 26.5624C288.215 27.9274 287.377 29.1672 286.317 30.2093C285.258 31.2514 283.998 32.075 282.612 32.632C281.226 33.189 279.742 33.4683 278.245 33.4535C276.076 33.4555 273.953 32.8395 272.131 31.6796C272.001 31.5966 271.903 31.4724 271.854 31.3274C271.804 31.1825 271.806 31.0253 271.859 30.8816C271.912 30.7379 272.013 30.6162 272.146 30.5364C272.278 30.4566 272.434 30.4235 272.588 30.4424C273.846 30.5907 275.122 30.3905 276.271 29.8642C275.71 29.6129 275.209 29.2491 274.798 28.7961C274.388 28.3431 274.078 27.8108 273.887 27.2331C273.851 27.1225 273.844 27.0045 273.868 26.8906C273.892 26.7767 273.944 26.6707 274.022 26.5829L274.031 26.5739C273.567 26.1667 273.196 25.6678 272.94 25.1098C272.685 24.5518 272.551 23.9471 272.548 23.3349V23.2881C272.548 23.1398 272.598 22.9956 272.689 22.8778C272.78 22.76 272.908 22.6751 273.054 22.6361C272.744 22.0277 272.584 21.3563 272.585 20.6758C272.584 19.9042 272.789 19.146 273.179 18.4768C273.234 18.3818 273.312 18.3015 273.406 18.2429C273.5 18.1842 273.607 18.1489 273.717 18.14C273.828 18.1312 273.939 18.149 274.042 18.192C274.144 18.235 274.234 18.3018 274.304 18.3868C275.902 20.3272 278.19 21.5931 280.703 21.9256C280.681 21.1154 280.888 20.3151 281.302 19.6144C281.715 18.9137 282.318 18.3402 283.043 17.9582C283.41 17.7655 283.896 17.6115 284.396 17.5268H284.395ZM274.095 24.3236C274.272 24.8157 274.576 25.254 274.977 25.5956C275.377 25.9372 275.861 26.1703 276.381 26.2722C276.531 26.3016 276.666 26.3795 276.766 26.4934C276.865 26.6074 276.924 26.7509 276.931 26.9012C276.939 27.0515 276.895 27.1999 276.807 27.323C276.72 27.4461 276.593 27.5368 276.447 27.5806C276.198 27.6554 275.943 27.7067 275.685 27.7364C275.966 28.0933 276.324 28.3837 276.733 28.5863C277.142 28.7888 277.593 28.8984 278.05 28.907C278.192 28.9097 278.329 28.9553 278.443 29.0377C278.557 29.12 278.642 29.2351 278.687 29.3671C278.732 29.4992 278.734 29.6417 278.694 29.7752C278.654 29.9087 278.572 30.0266 278.461 30.1128C277.509 30.8516 276.402 31.3729 275.221 31.6391C276.199 31.9477 277.22 32.1042 278.247 32.1028H278.255C279.57 32.1165 280.875 31.8716 282.093 31.3825C283.311 30.8934 284.418 30.1698 285.35 29.2541C286.281 28.3383 287.018 27.2488 287.517 26.0491C288.016 24.8494 288.268 23.5637 288.258 22.2669V21.7852C288.258 21.6212 288.318 21.4628 288.428 21.3394C288.492 21.2683 288.601 21.1044 288.757 20.8352C288.903 20.5812 289.065 20.2751 289.234 19.9518L289.264 19.8924C288.787 19.9982 288.296 20.0277 287.809 19.9797C287.645 19.9621 287.492 19.8862 287.38 19.7663C286.921 19.2753 286.309 18.9484 285.641 18.837C285.304 18.79 284.962 18.7976 284.627 18.8595C284.301 18.9096 283.985 19.0076 283.688 19.1504C283.091 19.4652 282.616 19.9667 282.339 20.5762C282.061 21.1857 281.997 21.8687 282.156 22.5182C282.181 22.6203 282.181 22.7267 282.157 22.8291C282.133 22.9314 282.085 23.0268 282.017 23.1077C281.949 23.1886 281.863 23.2527 281.766 23.2949C281.668 23.3372 281.562 23.3564 281.455 23.3511C278.649 23.2112 275.996 22.047 274.013 20.0851C273.974 20.28 273.955 20.4781 273.955 20.6767V20.6785C273.954 21.1744 274.077 21.6629 274.314 22.1005C274.551 22.538 274.894 22.911 275.312 23.1863C275.435 23.2678 275.528 23.3864 275.577 23.5243C275.625 23.6622 275.627 23.812 275.583 23.9511C275.538 24.0903 275.448 24.2114 275.328 24.2962C275.207 24.3811 275.062 24.4251 274.914 24.4218C274.638 24.4142 274.364 24.382 274.095 24.3236Z" fill="white"/>
<circle cx="281.273" cy="25.4543" r="23.7273" stroke="white" stroke-width="2"/>
<path d="M105 26H0" stroke="white"/>
<path d="M420 26H315" stroke="white"/>
</svg>
