<svg width="54" height="54" viewBox="0 0 54 54" fill="none" xmlns="http://www.w3.org/2000/svg">
<circle cx="27" cy="27" r="27" fill="#6EAD8A"/>
<path d="M21.4796 15.5831C21.6303 15.3983 21.8096 15.2517 22.0072 15.1516C22.2048 15.0515 22.4167 15 22.6308 15C22.8448 15 23.0567 15.0515 23.2543 15.1516C23.4519 15.2517 23.6312 15.3983 23.7819 15.5831L31.8888 25.4393C32.0408 25.6225 32.1614 25.8405 32.2437 26.0807C32.326 26.321 32.3684 26.5786 32.3684 26.8388C32.3684 27.0991 32.326 27.3567 32.2437 27.5969C32.1614 27.8371 32.0408 28.0552 31.8888 28.2384L23.7819 38.0946C23.6312 38.2793 23.4519 38.426 23.2543 38.5261C23.0567 38.6262 22.8448 38.6777 22.6308 38.6777C22.4167 38.6777 22.2048 38.6262 22.0072 38.5261C21.8096 38.426 21.6303 38.2793 21.4796 38.0946C21.3276 37.9113 21.207 37.6933 21.1247 37.4531C21.0424 37.2129 21 36.9552 21 36.695C21 36.4348 21.0424 36.1771 21.1247 35.9369C21.207 35.6967 21.3276 35.4787 21.4796 35.2954L28.4515 26.8388L21.4796 18.3822C21.3276 18.199 21.207 17.981 21.1247 17.7408C21.0424 17.5005 21 17.2429 21 16.9827C21 16.7224 21.0424 16.4648 21.1247 16.2246C21.207 15.9844 21.3276 15.7663 21.4796 15.5831Z" fill="white"/>
</svg>
