<svg width="6" height="11" viewBox="0 0 6 11" fill="none" xmlns="http://www.w3.org/2000/svg">
<path d="M0.232086 10.7291C0.305007 10.815 0.391763 10.8831 0.48735 10.9296C0.582938 10.9761 0.685464 11 0.789015 11C0.892566 11 0.995092 10.9761 1.09068 10.9296C1.18627 10.8831 1.27302 10.815 1.34594 10.7291L5.26797 6.15026C5.3415 6.06513 5.39985 5.96384 5.43967 5.85224C5.4795 5.74065 5.5 5.62095 5.5 5.50006C5.5 5.37917 5.4795 5.25947 5.43967 5.14788C5.39985 5.03628 5.3415 4.935 5.26797 4.84986L1.34594 0.271005C1.27302 0.185172 1.18627 0.117042 1.09068 0.0705494C0.995092 0.0240571 0.892566 0.000120647 0.789015 0.000120647C0.685464 0.000120647 0.582938 0.0240571 0.48735 0.0705494C0.391763 0.117042 0.305007 0.185172 0.232086 0.271005C0.158565 0.356138 0.10021 0.457423 0.0603867 0.569018C0.0205635 0.680613 6.03233e-05 0.80031 6.03233e-05 0.921203C6.03233e-05 1.04209 0.0205635 1.16179 0.0603867 1.27339C0.10021 1.38498 0.158565 1.48627 0.232086 1.5714L3.60503 5.50006L0.232086 9.42872C0.158565 9.51385 0.10021 9.61514 0.0603867 9.72673C0.0205635 9.83833 6.03233e-05 9.95803 6.03233e-05 10.0789C6.03233e-05 10.1998 0.0205635 10.3195 0.0603867 10.4311C0.10021 10.5427 0.158565 10.644 0.232086 10.7291Z" fill="white"/>
</svg>
