<svg width="13" height="7" viewBox="0 0 13 7" fill="none" xmlns="http://www.w3.org/2000/svg">
<path d="M0.320139 0.295309C0.218698 0.388118 0.138182 0.498536 0.0832357 0.620194C0.0282893 0.741852 0 0.872341 0 1.00413C0 1.13593 0.0282893 1.26642 0.0832357 1.38808C0.138182 1.50973 0.218698 1.62015 0.320139 1.71296L5.73158 6.70469C5.83219 6.79826 5.95189 6.87254 6.08378 6.92322C6.21566 6.9739 6.35713 7 6.5 7C6.64287 7 6.78434 6.9739 6.91622 6.92322C7.04811 6.87254 7.16781 6.79826 7.26842 6.70469L12.6799 1.71296C12.7813 1.62015 12.8618 1.50973 12.9168 1.38808C12.9717 1.26642 13 1.13593 13 1.00413C13 0.872341 12.9717 0.741852 12.9168 0.620194C12.8618 0.498536 12.7813 0.388118 12.6799 0.295309C12.5792 0.201735 12.4595 0.127465 12.3277 0.0767798C12.1958 0.0260949 12.0543 0 11.9114 0C11.7686 0 11.6271 0.0260949 11.4952 0.0767798C11.3633 0.127465 11.2436 0.201735 11.143 0.295309L6.5 4.5882L1.85699 0.295309C1.75637 0.201735 1.63667 0.127465 1.50479 0.0767798C1.3729 0.0260949 1.23144 0 1.08856 0C0.945688 0 0.804227 0.0260949 0.67234 0.0767798C0.540454 0.127465 0.420751 0.201735 0.320139 0.295309Z" fill="black"/>
</svg>
