<svg width="11" height="18" viewBox="0 0 11 18" fill="none" xmlns="http://www.w3.org/2000/svg">
<path d="M0.464057 0.443269C0.6099 0.302812 0.783414 0.191329 0.97459 0.115249C1.16577 0.0391699 1.37082 0 1.57793 0C1.78503 0 1.99009 0.0391699 2.18126 0.115249C2.37244 0.191329 2.54595 0.302812 2.6918 0.443269L10.5359 7.93603C10.683 8.07534 10.7997 8.24108 10.8793 8.42369C10.959 8.6063 11 8.80217 11 9C11 9.19783 10.959 9.3937 10.8793 9.57631C10.7997 9.75892 10.683 9.92466 10.5359 10.064L2.6918 17.5567C2.54595 17.6972 2.37244 17.8087 2.18126 17.8848C1.99009 17.9608 1.78503 18 1.57793 18C1.37082 18 1.16577 17.9608 0.97459 17.8848C0.783414 17.8087 0.6099 17.6972 0.464057 17.5567C0.317013 17.4174 0.200302 17.2517 0.120654 17.0691C0.041007 16.8865 0 16.6906 0 16.4928C0 16.2949 0.041007 16.0991 0.120654 15.9165C0.200302 15.7338 0.317013 15.5681 0.464057 15.4288L7.21002 9L0.464057 2.57121C0.317013 2.4319 0.200302 2.26616 0.120654 2.08355C0.041007 1.90094 0 1.70507 0 1.50724C0 1.30941 0.041007 1.11355 0.120654 0.930933C0.200302 0.74832 0.317013 0.582579 0.464057 0.443269Z" fill="white"/>
</svg>
