<svg width="12" height="24" viewBox="0 0 12 24" fill="none" xmlns="http://www.w3.org/2000/svg">
<path d="M11.037 0.591024C10.8842 0.403749 10.7025 0.255104 10.5022 0.153665C10.3019 0.0522264 10.0871 0 9.87018 0C9.65323 0 9.43842 0.0522264 9.23815 0.153665C9.03788 0.255104 8.85612 0.403749 8.70334 0.591024L0.486127 10.5813C0.33209 10.7671 0.209827 10.9881 0.126392 11.2316C0.0429567 11.475 0 11.7362 0 12C0 12.2637 0.0429567 12.5249 0.126392 12.7684C0.209827 13.0119 0.33209 13.2328 0.486127 13.4186L8.70334 23.4089C8.85612 23.5962 9.03788 23.7448 9.23815 23.8463C9.43842 23.9477 9.65323 23.9999 9.87018 23.9999C10.0871 23.9999 10.3019 23.9477 10.5022 23.8463C10.7025 23.7448 10.8842 23.5962 11.037 23.4089C11.1911 23.2232 11.3133 23.0022 11.3968 22.7587C11.4802 22.5152 11.5232 22.2541 11.5232 21.9903C11.5232 21.7265 11.4802 21.4654 11.3968 21.2219C11.3133 20.9784 11.1911 20.7574 11.037 20.5717L3.97022 12L11.037 3.42827C11.1911 3.24253 11.3133 3.02154 11.3968 2.77806C11.4802 2.53458 11.5232 2.27342 11.5232 2.00965C11.5232 1.74588 11.4802 1.48472 11.3968 1.24124C11.3133 0.997758 11.1911 0.77677 11.037 0.591024Z" fill="white"/>
</svg>
