<svg width="12" height="24" viewBox="0 0 12 24" fill="none" xmlns="http://www.w3.org/2000/svg">
<path d="M0.486115 0.591024C0.638894 0.403749 0.82066 0.255104 1.02093 0.153665C1.2212 0.0522264 1.436 0 1.65296 0C1.86991 0 2.08472 0.0522264 2.28499 0.153665C2.48526 0.255104 2.66702 0.403749 2.8198 0.591024L11.037 10.5813C11.191 10.7671 11.3133 10.9881 11.3967 11.2316C11.4802 11.475 11.5231 11.7362 11.5231 12C11.5231 12.2637 11.4802 12.5249 11.3967 12.7684C11.3133 13.0119 11.191 13.2328 11.037 13.4186L2.8198 23.4089C2.66702 23.5962 2.48526 23.7448 2.28499 23.8463C2.08472 23.9477 1.86991 23.9999 1.65296 23.9999C1.436 23.9999 1.2212 23.9477 1.02093 23.8463C0.82066 23.7448 0.638894 23.5962 0.486115 23.4089C0.332078 23.2232 0.209815 23.0022 0.126379 22.7587C0.0429446 22.5152 -1.25665e-05 22.2541 -1.25665e-05 21.9903C-1.25665e-05 21.7265 0.0429446 21.4654 0.126379 21.2219C0.209815 20.9784 0.332078 20.7574 0.486115 20.5717L7.55291 12L0.486115 3.42827C0.332078 3.24253 0.209815 3.02154 0.126379 2.77806C0.0429446 2.53458 -1.25665e-05 2.27342 -1.25665e-05 2.00965C-1.25665e-05 1.74588 0.0429446 1.48472 0.126379 1.24124C0.209815 0.997758 0.332078 0.77677 0.486115 0.591024Z" fill="white"/>
</svg>
